<svg width="50" height="50" viewBox="0 0 50 50" fill="none" xmlns="http://www.w3.org/2000/svg">
<path d="M14.9401 16.9351L14.1049 12.1161C13.966 11.3146 13.9145 10.4317 14.1928 9.65806C14.5029 8.79587 15.0785 8.34546 15.7126 7.77676L23.3289 0.945537C24.4287 -0.0409183 25.2749 -0.179397 26.7092 0.182046L32.9922 1.76529C33.845 1.98016 34.5724 2.56873 35.2767 3.08891C40.3525 6.83781 44.6642 12.1264 47.8603 17.5365C49.1401 19.7029 49.7949 23.2789 49.9834 25.7728C50.0856 27.1244 49.72 27.8745 48.752 28.8125L41.2077 36.2239C40.1239 37.2887 38.7489 37.3169 37.3092 37.1007C36.0011 36.9042 34.6173 36.4507 33.4615 36.0467C33.4438 36.0405 33.4254 36.0443 33.4116 36.057L32.2848 37.0887C31.571 37.7423 30.7639 37.76 29.8411 37.5513C28.9598 37.352 27.9173 36.8876 26.7829 36.1986C26.7637 36.187 26.7402 36.1893 26.7236 36.2043L12.5903 49.0972C12.4104 49.2613 12.2784 49.4029 12.0473 49.5056C11.3157 49.8306 10.1736 49.5404 8.85201 48.7695C5.76285 46.9677 2.08809 42.8982 0.614013 39.6381C0.0682811 38.4312 -0.131413 37.3959 0.0867491 36.6908C0.224585 36.2453 0.534481 36.0194 0.855597 35.715L14.6274 22.6628C14.6431 22.648 14.6474 22.6259 14.6385 22.6063C14.1249 21.474 13.8111 20.4515 13.7263 19.6033C13.6304 18.6443 13.8249 17.8891 14.3479 17.4169C14.3491 17.4159 14.35 17.4151 14.3513 17.4142L14.9211 16.9832C14.9363 16.9717 14.9433 16.9539 14.9401 16.9351L14.9401 16.9351ZM36.3236 7.66605C36.0527 7.44194 36.3939 7.0296 36.6648 7.25371C37.1111 7.62323 37.5423 8.00579 37.9652 8.40181C38.2213 8.64135 37.857 9.03067 37.601 8.79113C37.1876 8.40397 36.7599 8.02727 36.3236 7.66605H36.3236ZM38.7085 9.8836C38.4649 9.6303 38.85 9.25981 39.0937 9.51312C40.578 11.0505 41.9175 12.7352 43.1106 14.5074C43.3058 14.7988 42.8621 15.096 42.6668 14.8046C41.4918 13.0591 40.1704 11.3978 38.7085 9.88361V9.8836ZM17.9929 20.5708C18.9201 20.6125 20.0616 21.0724 21.2633 21.8193C24.6243 23.9082 28.9106 28.5867 29.5914 32.5196C29.5946 32.5379 29.6066 32.5521 29.6242 32.5581C29.6418 32.5641 29.66 32.5604 29.6737 32.5478L30.8256 31.4971C30.8424 31.4818 30.8467 31.4579 30.8363 31.4377C28.5441 27.0043 23.7277 21.69 19.4994 19.078C19.48 19.066 19.4558 19.0686 19.4392 19.0843L17.961 20.4852C17.9463 20.4992 17.9415 20.5195 17.9486 20.5386C17.9557 20.5577 17.9726 20.5699 17.9929 20.5708L17.9929 20.5708ZM29.121 33.0251C28.736 29.1497 24.2602 24.3117 20.9807 22.2735C20.0761 21.7112 18.286 20.7572 17.1833 21.2265C17.1776 21.2289 17.1732 21.2319 17.1687 21.2362L16.3276 22.0332C16.3129 22.0472 16.3082 22.0675 16.3153 22.0866C16.3224 22.1057 16.3392 22.1179 16.3596 22.1188C17.2857 22.1598 18.4261 22.6191 19.6266 23.3653C22.9797 25.4492 27.2473 30.1078 27.9372 34.0288C27.9404 34.0471 27.9524 34.0612 27.97 34.0672C27.9876 34.0732 28.0057 34.0694 28.0195 34.0569L29.105 33.0667C29.1169 33.0558 29.1226 33.0412 29.121 33.0251ZM27.4682 34.5327C27.0705 30.669 22.6157 25.8528 19.344 23.8195C18.0836 23.0361 16.9178 22.5903 16.0562 22.6575C15.5564 22.6965 15.4152 22.898 15.094 23.2024L14.6943 23.5813C14.6795 23.5953 14.6748 23.6156 14.6819 23.6346C14.689 23.6537 14.7059 23.666 14.7263 23.6669C15.6512 23.7071 16.7905 24.1658 17.99 24.9112C21.3349 26.9902 25.584 31.6291 26.2829 35.538C26.2862 35.5563 26.2983 35.5703 26.3158 35.5763C26.3334 35.5822 26.3515 35.5784 26.3652 35.5659C26.7268 35.236 27.0897 34.905 27.4522 34.5744C27.4641 34.5634 27.4699 34.5488 27.4682 34.5327V34.5327ZM25.8151 36.0405C25.405 32.1884 20.9714 27.394 17.7074 25.3655C16.4492 24.5835 15.2855 24.1385 14.4255 24.2056C14.2373 24.2203 14.0648 24.2604 13.9107 24.328C13.9052 24.3304 13.9008 24.3333 13.8965 24.3374L13.0609 25.1293C13.0462 25.1433 13.0415 25.1636 13.0486 25.1826C13.0557 25.2017 13.0726 25.214 13.0929 25.2148C14.0167 25.2544 15.155 25.7125 16.3533 26.4572C19.6901 28.5311 23.9208 33.1504 24.6287 37.0472C24.632 37.0654 24.6441 37.0794 24.6616 37.0853C24.6792 37.0913 24.6973 37.0875 24.711 37.075L25.799 36.0824C25.8111 36.0714 25.8168 36.0567 25.8151 36.0405H25.8151ZM24.1619 37.5484C23.7397 33.7078 19.327 28.9352 16.0707 26.9115C14.8148 26.1309 13.6533 25.6867 12.7949 25.7537C12.6042 25.7685 12.4297 25.8095 12.2742 25.8788C12.2688 25.8812 12.2645 25.8841 12.2603 25.8881L11.4276 26.6773C11.4128 26.6913 11.4081 26.7116 11.4152 26.7307C11.4224 26.7498 11.4393 26.762 11.4596 26.7629C12.3823 26.8018 13.5194 27.2592 14.7166 28.0032C18.0453 30.072 22.2577 34.6718 22.9745 38.5564C22.9778 38.5746 22.9899 38.5885 23.0075 38.5944C23.025 38.6003 23.043 38.5965 23.0567 38.584L24.1459 37.5904C24.158 37.5794 24.1637 37.5647 24.1619 37.5484L24.1619 37.5484ZM22.5087 39.0563C22.0744 35.2273 17.6825 30.4764 14.4341 28.4574C13.1805 27.6783 12.021 27.235 11.1642 27.3018C10.971 27.3168 10.7945 27.3588 10.6375 27.4298C10.6322 27.4322 10.628 27.435 10.6238 27.439L9.79423 28.2253C9.77945 28.2393 9.77475 28.2596 9.78189 28.2787C9.78903 28.2978 9.80594 28.31 9.82631 28.3109C10.7478 28.3491 11.8839 28.8058 13.08 29.5492C16.4004 31.6129 20.5947 36.1932 21.3202 40.0656C21.3236 40.0838 21.3357 40.0977 21.3533 40.1035C21.3708 40.1094 21.3888 40.1056 21.4024 40.0931L22.4928 39.0985C22.5049 39.0874 22.5106 39.0726 22.5088 39.0563H22.5087ZM20.8556 40.5642C20.4092 36.7469 16.038 32.0175 12.7974 30.0034C11.5461 29.2257 10.3887 28.7832 9.53355 28.8498C9.33782 28.8651 9.15926 28.908 9.00084 28.9809C8.99566 28.9832 8.99157 28.986 8.98744 28.9899L8.16089 29.7733C8.1461 29.7873 8.1414 29.8076 8.14855 29.8267C8.1557 29.8458 8.17263 29.858 8.193 29.8589C9.11336 29.8965 10.2483 30.3525 11.4433 31.0952C14.7556 33.1538 18.9317 37.7146 19.6658 41.5749C19.6693 41.5931 19.6814 41.6069 19.6989 41.6128C19.7164 41.6186 19.7344 41.6148 19.748 41.6023L20.8396 40.6066C20.8518 40.5954 20.8575 40.5805 20.8556 40.5642H20.8556ZM19.2024 42.072C18.7441 38.2665 14.3935 33.5586 11.1607 31.5494C9.91167 30.7731 8.75648 30.3314 7.90288 30.3979C7.70454 30.4134 7.52383 30.4573 7.36392 30.5321C7.35885 30.5345 7.35485 30.5372 7.35079 30.541L6.46513 31.3804C6.4504 31.3944 6.44567 31.4146 6.45271 31.4337C6.45974 31.4527 6.47648 31.465 6.49675 31.466C7.41027 31.512 8.53183 31.9655 9.71199 32.699C13.0192 34.7544 17.1915 39.3109 17.9214 43.1662C17.9249 43.1843 17.9369 43.1982 17.9545 43.204C17.972 43.2099 17.99 43.2061 18.0036 43.1936L19.1864 42.1146C19.1986 42.1035 19.2044 42.0885 19.2024 42.072ZM17.4575 43.6638C17.0046 39.8634 12.6571 35.1592 9.42942 33.1532C8.18262 32.3783 7.02955 31.9373 6.17754 32.0037C6.00335 32.0173 5.8428 32.0529 5.69803 32.1121C5.69207 32.1145 5.68735 32.1175 5.68267 32.122L4.67493 33.0771C4.66023 33.091 4.6555 33.1112 4.66247 33.1302C4.66946 33.1492 4.68612 33.1615 4.70636 33.1626C5.6158 33.2124 6.73006 33.6642 7.90222 34.3927C11.2025 36.4439 15.3615 40.9862 16.0955 44.8319C16.0989 44.8501 16.111 44.8639 16.1286 44.8697C16.1461 44.8756 16.164 44.8717 16.1777 44.8593L17.4416 43.7063C17.4538 43.6952 17.4595 43.6802 17.4575 43.6638H17.4575ZM15.6323 45.3287C15.1735 41.5377 10.8405 36.8487 7.61966 34.8469C6.37513 34.0735 5.22418 33.6333 4.37378 33.6996C4.20967 33.7124 4.05771 33.7447 3.91966 33.798C3.91333 33.8005 3.90831 33.8036 3.90338 33.8083L2.89717 34.7619C2.88247 34.7759 2.87775 34.796 2.88471 34.815C2.89168 34.834 2.90833 34.8464 2.92856 34.8475C3.83623 34.8976 4.94803 35.3485 6.11756 36.0754C9.40955 38.1214 13.5495 42.6433 14.2927 46.4766C14.2962 46.4947 14.3083 46.5085 14.3258 46.5143C14.3433 46.5201 14.3612 46.5163 14.3748 46.5038L15.6163 45.3713C15.6286 45.3602 15.6343 45.3451 15.6323 45.3287L15.6323 45.3287ZM13.8309 46.9719C13.3594 43.193 9.04779 38.5264 5.83502 36.5296C4.59276 35.7575 3.44394 35.3182 2.59513 35.3844C2.19623 35.4155 2.13511 35.4797 1.90241 35.704C1.88858 35.7174 1.88377 35.7361 1.88943 35.7544C1.8951 35.7728 1.90965 35.7855 1.92858 35.7887C2.5248 35.8893 3.22356 36.1732 3.98143 36.6152C7.07056 38.417 10.7453 42.4865 12.2194 45.7466C12.5686 46.5189 12.7761 47.2209 12.8231 47.8111C12.8246 47.8304 12.8363 47.8462 12.8543 47.8533C12.8724 47.8604 12.8916 47.8569 12.906 47.8438L13.8149 47.0146C13.8272 47.0034 13.8329 46.9883 13.8309 46.9718V46.9719ZM3.56236 37.8705C6.027 39.6005 9.10175 43.1528 10.6491 45.7333C11.0813 46.4542 11.3244 47.0328 11.3608 47.4202C11.4098 47.9401 11.0968 48.2799 10.5664 48.2068C10.2174 48.1587 9.7017 47.9123 9.01155 47.4343C6.41002 45.6323 3.32037 42.2334 1.85376 39.4257C1.5187 38.7843 1.35398 38.2783 1.35309 37.931C1.35177 37.4323 1.67786 37.1341 2.17596 37.1972C2.50945 37.2395 2.97488 37.4581 3.56236 37.8705V37.8705ZM3.15211 38.4538C1.85157 37.5409 1.76019 37.7098 2.48447 39.0964C3.89834 41.8031 6.90832 45.1111 9.41621 46.8482C9.77348 47.0957 10.0595 47.2798 10.2913 47.3758C10.6216 47.5125 10.6585 47.4446 10.5618 47.1319C10.4771 46.858 10.2871 46.5146 10.0379 46.0989C8.54393 43.6074 5.53174 40.1241 3.15211 38.4538ZM12.1042 48.392C12.2273 47.8848 12.0278 47.0539 11.5691 46.0396C10.1575 42.9176 6.58263 38.9576 3.62421 37.232C2.90833 36.8144 2.27822 36.5494 1.78846 36.4688C1.00706 36.3401 0.644432 36.6839 0.698852 37.4714C0.732738 37.9618 0.929456 38.6046 1.26429 39.3451C2.67594 42.4671 6.2508 46.4271 9.20923 48.1527C10.2055 48.7338 11.0357 49.0195 11.5527 48.9239C11.8521 48.8685 12.032 48.689 12.1041 48.392H12.1042ZM27.358 35.7126C28.3459 36.2942 29.2434 36.6859 29.9974 36.8564C33.3138 37.6064 31.9485 33.8103 31.2092 32.2C31.2023 32.1852 31.19 32.1754 31.174 32.1722C31.1579 32.1689 31.1427 32.1731 31.1307 32.1841L27.3498 35.6332C27.3378 35.6441 27.3322 35.6588 27.3339 35.675C27.3355 35.6912 27.344 35.7044 27.3581 35.7126H27.358ZM18.7673 18.6501C17.6339 18.0266 16.6466 17.6708 15.8997 17.6376C15.0681 17.6007 14.5327 17.9571 14.4323 18.8283C14.3165 19.8325 14.777 21.1376 15.1732 22.0537C15.1799 22.069 15.1925 22.0792 15.2088 22.0826C15.2252 22.086 15.2408 22.0815 15.2529 22.07L18.7775 18.7296C18.7894 18.7184 18.7947 18.7035 18.7926 18.6873C18.7905 18.6711 18.7816 18.658 18.7673 18.6501H18.7673ZM37.5038 26.1399L47.0655 17.6744C47.0836 17.6584 47.0876 17.6324 47.0753 17.6117C43.9471 12.3864 39.7582 7.27871 34.8376 3.64954C34.8183 3.63528 34.7922 3.63674 34.7745 3.65303L25.2876 12.3881C25.2772 12.3976 25.2718 12.4097 25.2716 12.4238C25.2714 12.438 25.2764 12.4502 25.2865 12.4601C25.4782 12.6474 25.676 12.8729 25.889 13.1489C29.2504 17.5044 33.0512 21.4891 36.8473 25.4624C37.0899 25.7164 37.2795 25.9321 37.4313 26.1327C37.44 26.1441 37.4517 26.1507 37.466 26.1521C37.4803 26.1536 37.4931 26.1494 37.5038 26.1399L37.5038 26.1399ZM47.4073 18.3225L37.8562 26.7786C37.84 26.7929 37.835 26.8149 37.8433 26.8348C37.9649 27.1269 38.0362 27.4348 38.1093 27.8383C38.3294 29.0535 38.5738 30.2651 38.8386 31.4906C39.098 32.6914 39.3761 33.8959 39.6696 35.1257C39.7732 35.5599 39.8041 35.943 39.7403 36.2613C39.737 36.2779 39.7416 36.2937 39.7535 36.3058C39.7653 36.3179 39.781 36.323 39.7977 36.32C40.2221 36.2438 40.531 35.89 40.7337 35.6909L48.2552 28.3018C49.0692 27.5131 49.3576 26.9615 49.2717 25.8259C49.0963 23.5048 48.5454 20.4435 47.4845 18.3373C47.4774 18.3231 47.4652 18.3139 47.4495 18.3109C47.4339 18.3079 47.4192 18.3119 47.4073 18.3225V18.3225ZM24.7111 11.9497L34.1729 3.23776C34.1842 3.22732 34.1897 3.21369 34.1888 3.19829C34.1879 3.1829 34.1808 3.17001 34.1683 3.16099C33.7754 2.87762 33.3268 2.5853 32.8192 2.4574L26.5362 0.874161C25.3665 0.579417 24.7321 0.642725 23.8274 1.45419L16.1609 8.33039C15.7571 8.69262 15.3365 9.02518 15.0538 9.49617C15.0439 9.51263 15.0441 9.53193 15.0544 9.54816C15.0646 9.56441 15.0819 9.57293 15.101 9.57113C15.3713 9.54559 15.7041 9.56908 16.1129 9.65017C18.6562 10.1547 21.1819 10.7683 23.6615 11.5274C24.0247 11.6386 24.3409 11.7627 24.6513 11.9554C24.6705 11.9673 24.6944 11.965 24.7111 11.9497V11.9497ZM38.5002 36.4874C39.2299 36.4628 39.1014 35.8217 38.9746 35.2904C38.6826 34.0665 38.4041 32.8596 38.1409 31.6413C37.883 30.4478 37.6386 29.2328 37.4088 27.9639C37.2317 26.9865 37.0178 26.6725 36.331 25.9536C32.5195 21.9642 28.7 17.9571 25.3253 13.5842C24.7689 12.8633 24.3305 12.4764 23.455 12.2084C20.9988 11.4565 18.4954 10.8504 15.9762 10.3507C14.4468 10.0473 14.6121 10.8644 14.8154 12.0371L15.5694 16.3883C15.5725 16.4059 15.5837 16.4196 15.6004 16.4261C15.6171 16.4326 15.6346 16.43 15.6488 16.419L16.6836 15.616C18.2742 14.3818 20.5638 15.5014 22.075 16.3494C26.8176 19.0104 32.2496 24.9506 34.3268 29.9931C34.9054 31.3979 35.7217 33.9416 34.3822 35.1682L34.0931 35.4329C34.0798 35.4451 34.0743 35.462 34.078 35.4797C34.0817 35.4973 34.0935 35.5107 34.1106 35.5165C35.142 35.8684 36.3141 36.2292 37.4153 36.3946C37.788 36.4506 38.152 36.4842 38.4981 36.4874C38.4989 36.4874 38.4995 36.4874 38.5003 36.4874L38.5002 36.4874ZM33.8908 34.6539C34.9646 33.6707 34.1198 31.3602 33.6682 30.2638C31.653 25.3719 26.3262 19.5528 21.7262 16.9718C20.545 16.309 18.4244 15.1668 17.151 16.155L16.2132 16.8827C16.197 16.8952 16.1904 16.9152 16.1957 16.9349C16.2011 16.9547 16.217 16.9685 16.2374 16.9711C17.154 17.0873 18.2624 17.5246 19.4793 18.2344C24.1339 20.9493 29.6853 27.0973 31.9063 32.0093C32.5195 33.3655 32.8413 34.5693 32.8246 35.5166C32.8243 35.5369 32.8354 35.5544 32.8538 35.5627C32.8723 35.5711 32.8928 35.5678 32.9077 35.5541C33.2354 35.254 33.5631 34.954 33.8908 34.6539V34.6539Z" fill="black"/>
</svg>
