<svg width="50" height="50" viewBox="0 0 50 50" fill="none" xmlns="http://www.w3.org/2000/svg">
<path d="M20.0639 10.1882C18.7136 10.4275 17.7503 10.9589 16.8604 12.0823C16.036 13.123 15.5021 14.3922 14.9314 15.5987L13.3678 18.9038C17.7199 19.075 22.2429 22.1638 24.1285 26.3043C24.2911 26.6612 24.4327 27.0223 24.5527 27.3853C25.0069 26.7181 25.4279 26.2808 25.9061 26.0418C26.0436 25.9732 26.1833 25.9214 26.3273 25.8858C25.9985 25.6543 25.6806 25.4039 25.3741 25.1364C24.6095 24.4693 23.9159 23.6971 23.3 22.8476C22.1758 21.2969 21.3254 19.5165 20.7572 17.6608C20.0074 15.212 19.7463 12.6011 20.0639 10.1882L20.0639 10.1882ZM8.69838 27.0964C9.27662 26.761 9.93069 26.5764 10.6249 26.5218C13.6772 26.282 17.4264 28.5715 18.8553 31.4022C19.1993 32.0837 19.4061 32.7916 19.4358 33.4957C21.3697 28.9402 11.8763 22.7953 8.6984 27.0964H8.69838ZM19.0332 34.2697C19.1832 33.3812 18.9853 32.458 18.5413 31.5783C17.1781 28.8776 13.5641 26.6661 10.6511 26.895C9.72297 26.968 8.87357 27.2914 8.20393 27.9236L7.83989 28.5814C8.42386 28.2282 9.08972 28.0278 9.79946 27.9618C12.8873 27.6748 16.6341 29.9422 18.0672 32.8172C18.4193 33.5234 18.6268 34.2575 18.6493 34.9849L19.0331 34.2697L19.0332 34.2697ZM18.2425 35.7429C18.3981 34.8378 18.2021 33.8925 17.7532 32.9918C16.3862 30.2496 12.7759 28.0609 9.82983 28.3347C8.90445 28.4207 8.06091 28.7529 7.39855 29.3789L7.03609 30.0339C7.61234 29.6833 8.27015 29.4773 8.97293 29.4019C12.0955 29.0668 15.8431 31.3134 17.2804 34.2325C17.6366 34.9559 17.8436 35.7081 17.8622 36.4514L18.2425 35.7429L18.2425 35.7429ZM17.4514 37.2168C17.6128 36.2949 17.4189 35.3267 16.9647 34.4043C15.5948 31.622 11.9858 29.4549 9.00882 29.7743C8.08614 29.8733 7.24842 30.2141 6.59335 30.8339L6.23239 31.4861C6.801 31.1379 7.4509 30.9266 8.14667 30.8419C11.3013 30.4582 15.053 32.6856 16.4931 35.6468C16.8536 36.3879 17.0603 37.1586 17.0753 37.9177L17.4514 37.2168V37.2168ZM16.6597 38.6919C16.8278 37.7527 16.6365 36.7612 16.1774 35.8171C14.8044 32.9941 11.1947 30.8481 8.18673 31.214C7.26786 31.3258 6.43674 31.6743 5.78917 32.2869L5.42933 32.9371C5.99014 32.5918 6.63175 32.3756 7.32009 32.282C10.5059 31.8489 14.264 34.0574 15.707 37.0607C16.0716 37.8195 16.2774 38.6089 16.2882 39.3841L16.6597 38.6919V38.6919ZM15.869 40.1653C16.0424 39.2098 15.8537 38.1954 15.3897 37.2297C14.0145 34.3674 10.4013 32.2409 7.3643 32.6538C6.44901 32.7782 5.62419 33.135 4.98385 33.742L4.62624 34.3882C5.17914 34.0454 5.81212 33.8244 6.49252 33.7222C9.70804 33.2391 13.4754 35.4299 14.9205 38.4744C15.2892 39.2512 15.4942 40.0595 15.501 40.8508L15.8689 40.1653H15.869ZM15.0781 41.6388C15.2575 40.6668 15.0718 39.6292 14.6032 38.642C13.226 35.7406 9.60722 33.6331 6.5423 34.0935C5.63099 34.2305 4.81283 34.5947 4.17977 35.195L3.82351 35.8387C4.36857 35.4984 4.99304 35.273 5.66543 35.1624C8.90884 34.6289 12.6886 36.8034 14.1352 39.8879C14.5078 40.6824 14.7116 41.5096 14.714 42.3171L15.0781 41.6388V41.6388ZM14.287 43.1127C14.4723 42.1244 14.2897 41.0634 13.8163 40.0541C12.4372 37.1134 8.81178 35.0248 5.71936 35.5334C4.8128 35.6825 4.00176 36.0538 3.37609 36.6471L3.02088 37.2889C3.55808 36.9516 4.17385 36.7221 4.83815 36.6034C8.10977 36.0188 11.9009 38.1752 13.3496 41.3013C13.7262 42.1139 13.9287 42.9602 13.9269 43.7836L14.287 43.1127L14.287 43.1127ZM13.4954 44.5877C13.6872 43.5822 13.5085 42.4973 13.0306 41.466C11.6508 38.4887 8.01326 36.4156 4.89615 36.9726C3.99453 37.1337 3.19045 37.5123 2.57192 38.1002L2.39503 38.4198C2.87586 38.157 3.40944 37.969 3.97822 37.8593C7.3533 37.2085 11.2413 39.3923 12.7253 42.6327C13.0695 43.3844 13.2711 44.1646 13.3109 44.9314L13.4954 44.5877L13.4954 44.5877ZM10.7775 47.0785C10.1505 47.9423 9.25928 48.3464 8.24696 48.3924C5.97888 48.4953 3.1608 46.8512 2.12196 44.6996C1.62274 43.6656 1.5134 42.5311 2.00307 41.47C3.2492 38.7693 6.62579 39.5633 8.59927 40.8246C10.6098 42.1096 12.5232 44.6737 10.7775 47.0785V47.0785ZM8.21399 47.6444C9.02085 47.6078 9.7257 47.2933 10.2128 46.6223C11.6559 44.6342 9.84227 42.4951 8.23143 41.4655C6.65271 40.4565 3.66642 39.5775 2.64242 41.7967C2.26066 42.6241 2.35422 43.5259 2.7563 44.3587C3.66832 46.2476 6.22576 47.7347 8.21399 47.6444ZM12.7412 47.5247C12.045 48.7958 10.8099 49.6015 9.34007 49.885C5.96134 50.5365 2.0758 48.3494 0.592996 45.1116C-0.115817 43.5639 -0.220059 41.8949 0.448267 40.4717C0.567583 40.2176 0.721292 39.9587 0.856153 39.715L5.02385 32.1844C4.51096 31.0561 4.21593 29.8837 4.16922 28.7337C4.122 27.5714 4.32775 26.4352 4.81734 25.3926C5.23449 24.5045 5.84768 23.5543 6.33929 22.6961C7.50626 20.6568 9.3453 19.4041 11.5366 19.0212C11.8747 18.9621 12.2211 18.9239 12.5746 18.9069L14.2972 15.2657C14.8978 13.9959 15.4453 12.7003 16.3161 11.601C17.3825 10.2548 18.5657 9.6547 20.1879 9.40991C20.2149 9.26601 20.244 9.12296 20.2754 8.9809C20.8288 6.47768 22.0627 4.26926 24.0874 2.7899C24.9548 2.15621 25.9546 1.65714 27.161 1.27882C28.2945 0.923323 29.6162 0.673561 31.1894 0.517564C32.413 0.367503 33.6347 0.619623 34.7502 1.15615L39.4017 0.18725C42.3856 -0.434287 44.5469 0.494474 46.5951 2.92868C48.2375 4.88079 49.4556 7.65518 49.8598 10.7892C50.2226 13.6016 49.9118 16.7005 48.568 19.1952C47.3692 21.4206 45.8856 22.4922 43.5587 22.8872L38.7763 23.6992C38.6735 23.8088 38.5684 23.9146 38.4611 24.0166C37.4624 25.6469 35.762 26.6127 33.9541 27.0755C31.9316 27.5932 29.7575 27.4785 28.2947 26.96C27.6313 26.7248 26.9013 26.3733 26.2102 26.7186C25.7532 26.9469 25.3305 27.4663 24.8121 28.3182C25.1439 29.7911 25.13 31.908 24.3767 33.2432C23.9313 34.0873 23.4917 34.9384 23.0413 35.7791C22.4884 36.811 21.692 37.6379 20.7268 38.2457C19.6775 38.9065 18.43 39.3057 17.0818 39.4254C15.6353 42.1204 14.209 44.8451 12.7412 47.5248L12.7412 47.5247ZM12.0844 42.9595C10.7378 40.0191 7.16916 38.0062 4.1053 38.597C2.82452 38.844 1.66965 39.5594 1.08527 40.8045C0.520212 42.0078 0.618409 43.4408 1.23393 44.7849C2.57885 47.7215 6.14624 49.7387 9.213 49.1473C10.4834 48.9024 11.5438 48.2181 12.1302 47.1442C12.8459 45.8334 12.6908 44.2837 12.0844 42.9595ZM5.4651 31.3871L7.6216 27.4905C11.0821 20.8082 22.6914 28.4761 19.9952 33.9969L17.5129 38.622C18.5655 38.468 19.5352 38.1247 20.3637 37.603C21.2116 37.0691 21.9125 36.3462 22.4028 35.4464C23.4974 33.3715 23.298 31.0651 22.3393 28.9718C20.2769 24.4684 14.8228 21.3943 10.1307 22.2991C8.26054 22.6597 6.68316 23.6396 5.75047 25.1725C5.64191 25.362 5.54755 25.5269 5.45433 25.7254C5.01894 26.6526 4.83599 27.6638 4.87803 28.6989C4.91414 29.5875 5.11555 30.496 5.46509 31.3871H5.4651ZM7.20546 22.6644C8.02791 22.1302 8.97658 21.7595 10.0036 21.5614C15.0069 20.5966 20.7804 23.8416 22.9802 28.645C23.5824 29.9599 23.8888 31.3329 23.8521 32.6601C24.6599 30.7186 24.334 28.4873 23.4874 26.6281C21.5173 22.302 16.2231 18.9611 11.6526 19.7597C9.8226 20.0794 8.2646 21.0674 7.20545 22.6644L7.20546 22.6644ZM22.4303 17.298C22.323 16.9463 22.8298 16.7743 22.937 17.1259C23.3606 18.5095 23.9947 19.8364 24.8329 20.9926C25.0459 21.2862 24.6222 21.6284 24.4093 21.3347C23.5343 20.1279 22.8724 18.7422 22.4302 17.298H22.4303ZM17.4183 13.2469C17.5834 13.0392 17.8827 13.304 17.7177 13.5117C17.0823 14.3138 16.6726 15.2871 16.233 16.2164C16.119 16.4582 15.7702 16.275 15.8842 16.0332C16.3402 15.0692 16.7575 14.0812 17.4183 13.2469ZM28.5942 26.277C29.9346 26.7347 31.9213 26.8247 33.7886 26.3467C34.4599 26.1749 35.1135 25.9293 35.7125 25.6005C35.3679 25.6936 35.0131 25.7554 34.6492 25.7838C32.2678 25.9698 29.9369 24.7078 28.0937 22.5171C26.2785 20.3598 24.9324 17.2933 24.4855 13.8289C24.0847 10.7216 24.4275 7.29614 25.9122 4.5399C26.5246 3.403 27.2963 2.45783 28.1957 1.76589C27.9065 1.83762 27.6289 1.91521 27.3621 1.99889C26.2271 2.35485 25.2932 2.81941 24.4905 3.40591C22.6238 4.76977 21.4831 6.81993 20.9679 9.15047C20.3934 11.7493 20.5944 14.6931 21.4329 17.4315C21.9763 19.2063 22.7897 20.9083 23.8649 22.3914C24.4508 23.1996 25.1072 23.9311 25.8273 24.5595C26.5999 25.2336 27.6039 25.9388 28.5942 26.277L28.5942 26.277ZM45.9977 14.0358C46.0366 13.6684 46.566 13.7308 46.5272 14.0982C46.3683 15.575 45.8388 17.1729 44.7502 18.1725C44.6395 18.2745 44.4714 18.2624 44.3748 18.1456C44.2783 18.0288 44.2897 17.8515 44.4004 17.7496C45.3816 16.8486 45.8548 15.3639 45.9977 14.0358ZM43.5301 20.7046C41.845 20.8363 40.1858 19.8908 38.8655 18.2559C37.5763 16.6595 36.6049 14.3961 36.2568 11.8441C35.7703 8.27759 36.7615 2.32591 41.0274 1.99262C42.7125 1.86096 44.3717 2.80636 45.692 4.44128C46.9812 6.03769 47.9526 8.3011 48.3007 10.8531C48.4531 11.9706 48.482 13.1155 48.3613 14.238C48.0563 17.0727 46.5742 20.4668 43.5301 20.7046ZM39.4059 17.7693C40.5812 19.2246 42.0312 20.0682 43.4775 19.9552C46.1435 19.747 47.3926 16.5964 47.6553 14.1548C47.7696 13.0932 47.7409 12.0149 47.5968 10.9581C47.2683 8.54988 46.3579 6.42178 45.1516 4.92793C43.9763 3.47262 42.5263 2.62896 41.0799 2.74196C39.5825 2.85894 38.4837 3.96013 37.8057 5.30443C36.842 7.21498 36.6716 9.61921 36.9607 11.7391C37.2892 14.1473 38.1996 16.2754 39.4059 17.7693H39.4059ZM41.1799 22.5304C37.2012 21.0973 34.8817 16.1641 34.3504 12.045C33.8802 8.4001 34.578 3.83114 37.417 1.36583L37.1303 1.42554C33.5605 3.28208 32.759 8.5799 33.2499 12.323C33.7993 16.5124 36.4573 22.1365 40.9676 22.5665L41.1799 22.5304ZM40.7029 0.717609C35.8179 1.09927 34.5201 7.80103 35.0547 11.9459C35.6083 16.2379 38.6627 22.4951 43.5073 22.1166C45.4744 21.9629 46.9902 20.6087 47.9507 18.8255C49.2148 16.4789 49.4966 13.533 49.1555 10.8883C48.7708 7.90622 47.6175 5.273 46.0637 3.42637C44.5381 1.61318 42.6307 0.566999 40.7029 0.717609ZM39.9136 22.7454C35.8048 21.5746 33.4363 16.4799 32.8978 12.374C32.4197 8.72868 33.1075 3.96039 36.1176 1.63648L35.4444 1.77672C31.8665 3.62341 31.1238 8.94745 31.6212 12.6761C32.1811 16.8721 34.7984 22.4728 39.3413 22.8426L39.9136 22.7454V22.7454ZM38.2512 23.0276C34.1392 21.8974 31.814 16.8101 31.2691 12.7271C30.7858 9.10473 31.4229 4.30535 34.4266 1.9887L33.752 2.12921C30.1674 3.9706 29.4875 9.3127 29.9925 13.0284C30.5646 17.2389 33.1355 22.8078 37.7183 23.1181L38.2512 23.0276V23.0276ZM36.5824 23.3074C32.4686 22.2121 30.1924 17.1427 29.6405 13.0809C29.1515 9.48025 29.7332 4.65313 32.7303 2.34203L32.0532 2.48307C28.459 4.32589 27.8515 9.6804 28.3637 13.3807C28.9459 17.5854 31.4356 23.0714 36.0162 23.388C36.1958 23.3652 36.3851 23.3379 36.5824 23.3074V23.3074ZM34.5542 23.4827C30.6557 22.2162 28.5564 17.3679 28.0119 13.4347C27.5224 9.89859 28.0224 5.13833 30.9123 2.78889C28.8225 3.59784 27.5627 5.67892 27.0319 8.21995C26.7083 9.76907 26.6537 11.4859 26.8455 13.1944C27.0377 14.9066 27.4764 16.608 28.139 18.122C29.4556 21.1305 31.6571 23.3938 34.5542 23.4827H34.5542ZM34.4784 24.2294C31.3017 24.1077 28.9102 21.6698 27.4943 18.4343C26.8003 16.8484 26.341 15.0694 26.1404 13.2819C25.9393 11.4906 25.997 9.68821 26.3372 8.05937C26.9413 5.16724 28.4301 2.81318 30.9351 1.98884C31.6784 1.74426 32.6462 1.59438 33.3993 1.43749C30.4788 0.618364 27.9794 2.21776 26.5294 4.90957C25.1245 7.51768 24.8107 10.7901 25.1898 13.7297C25.6171 17.0422 26.8986 19.9675 28.625 22.0194C30.3232 24.0378 32.448 25.2023 34.5966 25.0344C35.3023 24.9792 35.9655 24.7854 36.5768 24.4716C36.8754 24.3183 37.1629 24.1358 37.4381 23.9263L37.1371 23.9774C36.2786 24.1212 35.3449 24.2626 34.4784 24.2294V24.2294Z" fill="black"/>
</svg>
