<svg width="50" height="57" viewBox="0 0 50 57" fill="none" xmlns="http://www.w3.org/2000/svg">
<path d="M2.09896 26.3723L5.36547 19.2928C6.08996 22.1543 7.74781 24.961 9.57678 27.2804C12.5328 31.0293 16.6765 33.7873 20.7217 35.1227C23.4472 36.0225 26.1358 36.278 28.4046 35.7612C28.4343 35.7545 28.4641 35.7715 28.473 35.8004C28.4818 35.8287 28.4677 35.8589 28.4401 35.8704C25.0916 37.2633 19.6487 37.2204 14.5255 36.2019C12.1999 35.7396 9.94787 35.0757 7.99043 34.2526C6.04832 33.4359 4.39564 32.4637 3.25108 31.3783C1.62507 29.8363 1.16827 28.3895 2.09897 26.3723H2.09896ZM26.9885 26.0661C27.0973 26.4509 27.687 26.2868 27.5782 25.902C27.0663 24.1077 26.8144 22.2267 26.7743 20.3639C26.7664 19.965 26.1552 19.9769 26.163 20.3758C26.2043 22.2932 26.4617 24.2191 26.9886 26.0661L26.9885 26.0661ZM34.1792 5.72573C35.1791 7.13359 35.9644 8.9058 36.4709 10.9282C37.01 13.0811 37.2324 15.515 37.0611 18.0934C36.8901 20.667 36.3454 23.098 35.5219 25.2501C34.7392 27.2953 33.706 29.086 32.504 30.505C31.8463 29.5923 31.28 28.5205 30.8234 27.3221C29.7233 24.4346 29.391 21.2055 29.5949 18.1378C29.8865 13.7496 31.2666 9.78196 33.2622 6.91457C33.5552 6.49346 33.8615 6.09655 34.1792 5.72574V5.72573ZM32.8821 30.9998C34.1677 29.511 35.2688 27.6224 36.0948 25.4641C36.9389 23.2581 37.4972 20.7673 37.6723 18.1314C37.8478 15.4907 37.6191 12.9944 37.0653 10.7831C36.5266 8.63209 35.6796 6.74861 34.5965 5.26091C35.9557 3.81724 37.5025 2.84263 39.1257 2.49681C41.142 2.69452 43.0508 4.27152 44.4484 6.78728C46.3808 10.2658 46.9232 14.6376 46.6087 18.5754C46.2608 22.931 44.8897 26.7758 43.0319 29.5219C41.7692 31.3881 40.2869 32.7406 38.7584 33.3884C37.6093 33.8754 37.0868 33.872 35.9432 33.3936C35.258 33.1069 34.6114 32.6959 34.0123 32.176C33.6141 31.8304 33.2365 31.4368 32.8821 30.9998H32.8821ZM39.3785 33.7707C40.8817 33.0241 42.3158 31.6692 43.5401 29.8596C45.4575 27.0255 46.8705 23.0637 47.2222 18.5856C47.5395 14.5457 46.9682 10.0641 44.9853 6.4947C43.8907 4.52427 42.4839 3.09031 40.936 2.37696C43.2688 2.57025 45.3015 4.12029 46.7649 6.54966C48.7799 9.89479 49.3856 14.2015 49.1274 18.087C48.8358 22.4752 47.4557 26.4429 45.4601 29.3102C43.7696 31.7392 41.643 33.3687 39.3785 33.7707V33.7707ZM37.7789 2.05527C35.8387 2.80669 34.0539 4.35273 32.591 6.4547C30.5157 9.43655 29.0814 13.5496 28.7799 18.087C28.5687 21.2646 28.9203 24.6171 30.0596 27.6076C30.8827 29.7681 32.0535 31.5509 33.4754 32.7849C33.8335 33.0957 34.2072 33.3716 34.5952 33.6103L30.247 33.3076C27.6037 33.016 24.3314 31.0378 21.7562 27.8593C19.5827 25.1767 17.9179 21.6446 17.558 17.5533C17.4242 16.0329 17.407 14.5132 17.5125 13.045C17.7386 9.89886 18.5252 6.98444 19.9342 4.8055C21.3149 2.67038 23.3017 1.24337 25.9538 1.01365C26.5121 0.965307 27.0694 0.968537 27.6262 1.02504L37.7789 2.05528L37.7789 2.05527ZM37.3363 34.6136C37.648 34.6573 37.9652 34.6797 38.2873 34.6797C41.2387 34.6797 44.0202 32.8035 46.1313 29.7701C48.2066 26.7883 49.6409 22.6752 49.9424 18.1378C50.2113 14.091 49.5635 9.61819 47.4649 6.13421C45.887 3.51484 43.672 1.82926 41.102 1.57849L27.5196 0.200207C26.172 -0.029558 24.9386 -0.0559514 23.8148 0.092281C21.248 0.43082 19.2722 1.6759 17.825 3.48878C17.7705 3.55707 17.7168 3.62626 17.6638 3.69613L9.5592 8.77264C9.54998 8.7778 9.5409 8.78331 9.53202 8.78924C9.16818 9.01132 8.82922 9.24221 8.51427 9.48127C5.97981 11.405 4.95442 13.8691 4.98672 16.5399C4.99227 16.9994 5.02954 17.4646 5.09597 17.9338L0.161903 28.8274C-0.167934 29.9972 0.0187912 31.0962 0.607273 32.1071C0.607273 38.8776 0.607162 45.648 0.604362 52.4184C0.603451 54.6822 3.75008 55.4138 5.50336 55.8193C8.22693 56.4491 11.8502 56.8036 15.5319 56.8744C17.4797 56.9118 19.4389 56.8703 21.2849 56.7485C23.7077 56.5887 26.4352 56.2924 28.7567 55.572C30.1974 55.1249 32.0307 54.4385 32.0307 52.6863C32.0308 46.5389 32.0353 40.392 32.0353 34.2446L37.3363 34.6136L37.3363 34.6136ZM27.3182 53.5159C27.7028 53.397 27.5207 52.8166 27.136 52.9355C25.3093 53.5024 23.1628 53.7319 21.2567 53.8577C20.8547 53.8827 20.893 54.4892 21.2951 54.4642C23.248 54.3354 25.4468 54.0967 27.3182 53.5159ZM31.2124 43.8195V52.7046C31.2124 53.9846 29.5187 54.4863 28.5138 54.7982C26.2519 55.5001 23.5939 55.7842 21.2338 55.9398C19.3973 56.0609 17.4601 56.1025 15.5447 56.0657C11.9237 55.996 8.36264 55.6479 5.68871 55.0296C4.45432 54.7442 1.41862 54.1389 1.41933 52.4672L1.42314 43.3877C2.18143 44.1694 3.41212 44.8102 4.95858 45.3147C7.4999 46.1437 10.9345 46.6283 14.4974 46.7744C18.0527 46.9203 21.7404 46.7298 24.7967 46.2088C27.6638 45.7201 29.9993 44.9242 31.2124 43.8195V43.8195ZM31.2171 42.4682C30.7023 43.8329 28.1108 44.8213 24.6593 45.4096C21.654 45.9218 18.0269 46.1091 14.5294 45.9657C11.0396 45.8225 7.68342 45.3505 5.21108 44.544C3.08457 43.8503 1.64661 42.9318 1.42546 41.7973V33.1986C2.00359 33.8239 2.73986 34.4078 3.60098 34.9451C5.2803 35.9929 7.44329 36.8667 9.82504 37.5237C12.1973 38.1781 14.789 38.6188 17.3362 38.8029C23.2282 39.2288 28.9106 38.2688 31.2171 35.4006V42.4682L31.2171 42.4682ZM10.011 9.44692L16.6537 5.28616C15.8833 6.73741 15.3547 8.40303 15.0474 10.1734C14.6343 12.5538 14.6201 15.1301 14.9549 17.6302C15.0886 18.628 15.2793 19.6061 15.5217 20.5558C16.5667 24.6505 18.5827 28.3207 21.1406 30.8648C22.4247 32.1419 23.8461 33.1371 25.3522 33.7643C25.3793 33.7756 25.3935 33.8046 25.3857 33.8327C25.3779 33.8607 25.3507 33.8784 25.3217 33.8743C23.7747 33.6591 22.1403 33.221 20.504 32.5539C17.1114 31.1706 13.7226 28.8037 11.0968 25.3975C8.78917 22.4039 7.54226 19.283 7.36945 16.4651C7.19927 13.6902 8.07549 11.2097 10.011 9.44692ZM18.4642 3.98987C19.52 2.66731 20.8839 1.6765 22.5849 1.17558C21.2355 1.90743 20.1274 3.00652 19.2471 4.3678C17.7607 6.66642 16.9328 9.71374 16.6975 12.9879C16.5886 14.5028 16.606 16.0652 16.743 17.623C17.1181 21.8874 18.854 25.5696 21.1202 28.3667C23.1156 30.8296 25.5313 32.6102 27.8011 33.5036C27.8287 33.5145 27.8435 33.5439 27.8356 33.5723C27.8277 33.6006 27.8001 33.6184 27.7708 33.6139C25.5897 33.2791 23.5167 32.0817 21.7191 30.2939C19.2627 27.8508 17.3237 24.314 16.3143 20.3591C16.077 19.4293 15.8916 18.4817 15.7636 17.5255C15.4394 15.1058 15.4531 12.6128 15.8529 10.3098C16.2402 8.07846 17.0327 5.78316 18.4642 3.98987ZM5.92102 17.9445C5.9202 17.938 5.91921 17.9314 5.91806 17.9249C5.84698 17.4543 5.80727 16.9888 5.80171 16.5304C5.7808 14.8012 6.25098 13.1664 7.36152 11.7358C6.71712 13.1699 6.44884 14.7907 6.55445 16.5126C6.7369 19.4876 8.03951 22.7646 10.448 25.889C13.1677 29.4171 16.6787 31.869 20.194 33.3024C23.0679 34.4741 25.9522 34.9656 28.4191 34.809C28.4491 34.8071 28.4755 34.8281 28.4801 34.8576C28.4846 34.8869 28.4662 34.9147 28.4373 34.9221C26.2797 35.4743 23.6558 35.2394 20.9774 34.3552C17.0743 33.0666 13.0745 30.4035 10.2192 26.7825C8.25055 24.2854 6.40193 21.0906 5.92104 17.9445L5.92102 17.9445ZM0.907177 29.2034C1.16292 30.1827 1.78535 31.1085 2.68859 31.965C3.90469 33.1183 5.64226 34.1435 7.67404 34.9979C9.69049 35.8459 11.9961 36.5268 14.3657 36.9979C18.0826 37.7368 21.9753 37.9582 25.1949 37.5007C25.2263 37.4963 25.2556 37.5178 25.2604 37.5489C25.2651 37.5792 25.2451 37.6077 25.2149 37.614C22.9106 38.0886 20.1801 38.1956 17.3938 37.9942C14.8964 37.8137 12.3598 37.3828 10.0424 36.7435C7.73448 36.1069 5.6464 35.265 4.03564 34.26C1.76591 32.8438 0.464188 31.1125 0.907177 29.2034Z" fill="black"/>
</svg>
