<svg width="1280" height="395" viewBox="0 0 1280 395" fill="none" xmlns="http://www.w3.org/2000/svg">
<path d="M201.209 104.078C110.21 157.233 38.7384 238.612 1.19463 297.018L0 296.25L0 214.088C43.2277 161.18 103.637 103.168 175.989 60.9045C275.871 2.56076 400.65 -26.7505 533.259 32.2881C673.8 94.858 735.281 185.144 780.742 251.904C787.507 261.837 793.916 271.249 800.178 279.972C824.627 314.026 844.245 333.927 870.563 341.386C897.194 348.933 936.883 345.362 1005.01 315.035C1117.66 264.892 1192.08 244.188 1240.06 239.741C1255.51 238.309 1269.1 238.471 1280.8 240.311V286.831L1279.66 286.992C1279.88 288.567 1280.33 289.741 1280.8 290.587V291.703C1280.64 291.64 1280.48 291.573 1280.29 291.503C1275.53 289.674 1264.77 287.665 1244.68 289.528C1204.74 293.229 1136.19 311.375 1025.35 360.714C953.796 392.563 900.633 401.876 856.93 389.491C812.913 377.017 784.717 344.17 759.562 309.132C752.755 299.65 745.976 289.733 738.989 279.512C693.778 213.374 639.843 134.472 512.923 77.9657C399.142 27.3097 291.615 51.2697 201.209 104.078Z" fill="#343434"/>
</svg>
